<svg xmlns="http://www.w3.org/2000/svg" width="800" height="600" viewBox="0 0 800 600">
  <rect width="800" height="600" fill="#e5e7eb"/>
  <g opacity="0.5">
    <path d="M400 200c-44.18 0-80 35.82-80 80s35.82 80 80 80 80-35.82 80-80-35.82-80-80-80zm0 120c-22.09 0-40-17.91-40-40s17.91-40 40-40 40 17.91 40 40-17.91 40-40 40z" fill="#9ca3af"/>
    <path d="M600 440H200c-11.046 0-20-8.954-20-20V180c0-11.046 8.954-20 20-20h400c11.046 0 20 8.954 20 20v240c0 11.046-8.954 20-20 20zM220 400h360l-100-133.333L380 360l-60-80-100 120z" fill="#9ca3af"/>
  </g>
  <text x="400" y="320" font-family="Arial, sans-serif" font-size="24" fill="#6b7280" text-anchor="middle">No Image Available</text>
</svg>
