
<svg version="1.0" id="katman_1" xmlns="http://www.w3.org/2000/svg" xmlns:xlink="http://www.w3.org/1999/xlink" x="0px" y="0px"
	 viewBox="0 0 600 450" style="enable-background:new 0 0 600 450;" xml:space="preserve">
<style type="text/css">
	.st1{fill:#196C6E;}
</style>
<path className="st1" d="M522.4,266.8c3.6-0.2,6.7,2.6,6.9,6.3c0.2,3.6-2.6,6.7-6.3,6.9c-3.6,0.2-6.7-2.6-6.9-6.3c0-0.1,0-0.2,0-0.3
	C516.1,269.8,518.9,266.9,522.4,266.8 M522.4,265.8c-4.2,0-7.5,3.4-7.5,7.5c0,4.2,3.4,7.5,7.5,7.5s7.5-3.4,7.5-7.5
	C530,269.2,526.6,265.8,522.4,265.8z M523.5,273.5c0.9-0.2,1.6-1,1.6-2c0-1.4-1.2-2-2.9-2h-2.2v7.5h1.3v-3.4h1l1.6,2.5
	c0.5,0.8,0.6,0.8,1.3,0.8h0.6V277L523.5,273.5z M522.2,273.4h-0.9V270h0.8c1.3,0,1.8,0.5,1.8,1.7
	C523.9,272.9,523.5,273.4,522.2,273.4L522.2,273.4z"/>
<rect x="169.8" y="190.4" className="st1" width="27.8" height="90.4"/>
<path className="st1" d="M349.9,271.8c-8.2,0-12.1-4.9-12.1-13.3v-60.6H360v-7.5h-22.1v-22.6h-26.7l-1.3,22.6H298v7.5h11.9v59.6
	c0,15.4,8.8,25.4,26.8,25.4c13.5,0,21.5-5.5,24.8-12.9l-1.3-1.4C357.2,270.7,353.6,271.9,349.9,271.8z"/>
<path className="st1" d="M408.1,188.4c-29.7,0-48.5,20.7-48.5,47.7c0,26.8,17.6,46.8,47.9,46.8c30.9,0,48.5-20.7,48.5-47.7
	C455.9,208.4,437.5,188.4,408.1,188.4z M407.9,276.4c-14.9,0-17-12.1-17-41c0-28.4,2-40.7,16.8-40.7c14.9,0,17,12.3,17,41.1
	C424.6,264.1,422.8,276.4,407.9,276.4z"/>
<path className="st1" d="M494.9,206l-0.6-15.6h-27v90.4h27.9v-72.4l0,0c1.7-0.5,3.4-0.8,5.2-0.8c5,0,10.7,2,28.1,10.2l1.6-0.6v-25.4
	c-3.2-2.3-7.1-3.5-11-3.5C511.2,188.4,502.1,193.3,494.9,206z"/>
<path className="st1" d="M261.9,270l3.2,10.8h23.8v-69.6c0-15.4-12.1-22.9-31.9-22.9c-13.3,0-29.7,3.7-40.9,7.4l-1.3,15.8l1.6,0.8
	c21.3-14.3,27.6-17.6,34.2-17.6c7.5,0,10.6,3.9,10.6,12.1v18.8c-31.5,6.5-50.7,11.3-50.7,32.7c0,14.7,9.8,24.6,25.6,24.6
	C248.2,282.9,257.2,277.2,261.9,270z M238,253.2c0-13.9,4.7-17.4,23.3-21.3v34.8c-3.4,2.7-7.6,4.1-11.9,3.9
	C241.5,270.6,238,266.1,238,253.2z"/>
<circle className="st1" cx="141.2" cy="205.5" r="17"/>
<polygon className="st1" points="122.5,280.9 131.4,261 100,190.4 70.2,190.4 110.5,280.9 "/>
</svg>
